<?xml version="1.0" encoding="utf-8"?>
<!-- Generator: Adobe Illustrator 21.1.0, SVG Export Plug-In . SVG Version: 6.00 Build 0)  -->
<svg version="1.1" id="Layer_1" xmlns="http://www.w3.org/2000/svg" xmlns:xlink="http://www.w3.org/1999/xlink" x="0px" y="0px"
	 viewBox="0 0 87.9 39.7" style="enable-background:new 0 0 87.9 39.7;" xml:space="preserve">
<style type="text/css">
	.st0{fill:#0E0F0F;stroke:#979898;stroke-miterlimit:10;}
	.st1{fill:#FFFFFF;}
	.st2{fill-rule:evenodd;clip-rule:evenodd;fill:#FFFFFF;}
</style>
<g>
	<path class="st0" d="M82.8,38.8H5.1c-2,0-3.7-1.6-3.7-3.7V4.5c0-2,1.6-3.7,3.7-3.7h77.7c2,0,3.7,1.6,3.7,3.7v30.7
		C86.4,37.2,84.8,38.8,82.8,38.8z"/>
	<g>
		<path class="st1" d="M13.4,14.8V9.4h-1.9V8.2h5.3v1.2h-1.9v5.4H13.4z"/>
		<path class="st1" d="M16.6,12.4c0-1.4,1-2.5,2.5-2.5c1.6,0,2.6,1.2,2.6,2.5c0,1.4-1,2.5-2.6,2.5C17.6,15,16.6,13.8,16.6,12.4z
			 M20.4,12.4c0-0.8-0.4-1.4-1.2-1.4c-0.8,0-1.2,0.6-1.2,1.4c0,0.8,0.4,1.4,1.2,1.4C19.9,13.8,20.4,13.2,20.4,12.4z"/>
		<path class="st1" d="M22.8,16.1l0.6-0.9c0.4,0.4,0.9,0.6,1.5,0.6s1.3-0.3,1.3-1.2v-0.5c-0.4,0.5-0.9,0.8-1.5,0.8
			c-1.2,0-2.1-0.8-2.1-2.5c0-1.6,0.9-2.5,2.1-2.5c0.6,0,1.1,0.2,1.5,0.7V10h1.3v4.5c0,1.8-1.4,2.3-2.6,2.3
			C24.1,16.8,23.4,16.6,22.8,16.1z M26.2,13.1v-1.6C26,11.3,25.5,11,25.1,11c-0.7,0-1.2,0.5-1.2,1.3s0.5,1.3,1.2,1.3
			C25.5,13.7,26,13.4,26.2,13.1z"/>
		<path class="st1" d="M28.7,12.4c0-1.4,1-2.5,2.5-2.5c1.4,0,2.4,1.1,2.4,2.7v0.3H30c0.1,0.6,0.6,1.1,1.4,1.1c0.4,0,1-0.2,1.3-0.5
			l0.6,0.8c-0.5,0.4-1.2,0.7-2,0.7C29.8,15,28.7,14,28.7,12.4z M31.2,10.9c-0.8,0-1.1,0.6-1.2,1.1h2.4C32.4,11.5,32,10.9,31.2,10.9z
			"/>
		<path class="st1" d="M35,13.6v-2.5h-0.8V10H35V8.7h1.3V10h1v1.1h-1v2.2c0,0.3,0.2,0.5,0.4,0.5c0.2,0,0.4-0.1,0.4-0.1l0.3,1
			c-0.2,0.2-0.5,0.3-1.1,0.3C35.5,15,35,14.5,35,13.6z"/>
		<path class="st1" d="M41.7,14.8v-2.9c0-0.7-0.3-0.9-0.9-0.9c-0.5,0-0.9,0.3-1.1,0.6v3.2h-1.3V8.2h1.3v2.5c0.3-0.4,0.9-0.7,1.7-0.7
			c1.1,0,1.6,0.6,1.6,1.5v3.4H41.7z"/>
		<path class="st1" d="M44.2,12.4c0-1.4,1-2.5,2.5-2.5c1.4,0,2.4,1.1,2.4,2.7v0.3h-3.6c0.1,0.6,0.6,1.1,1.4,1.1c0.4,0,1-0.2,1.3-0.5
			l0.6,0.8c-0.5,0.4-1.2,0.7-2,0.7C45.3,15,44.2,14,44.2,12.4z M46.7,10.9c-0.8,0-1.1,0.6-1.2,1.1h2.4
			C47.8,11.5,47.5,10.9,46.7,10.9z"/>
		<path class="st1" d="M50.2,14.8V10h1.3v0.7c0.3-0.4,0.9-0.8,1.5-0.8v1.2c-0.1,0-0.2,0-0.4,0c-0.4,0-1,0.2-1.2,0.5v3.2H50.2z"/>
		<path class="st1" d="M61.1,14.8l-1-3.3l-1,3.3h-1.4L56.3,10h1.3l0.9,3.2l1.1-3.2h1.1l1.1,3.2l0.9-3.2H64l-1.5,4.8H61.1z"/>
		<path class="st1" d="M64.7,8.7c0-0.4,0.3-0.8,0.8-0.8c0.4,0,0.8,0.3,0.8,0.8c0,0.4-0.3,0.8-0.8,0.8C65.1,9.5,64.7,9.2,64.7,8.7z
			 M64.8,14.8V10h1.3v4.8H64.8z"/>
		<path class="st1" d="M67.9,13.6v-2.5h-0.8V10h0.8V8.7h1.3V10h1v1.1h-1v2.2c0,0.3,0.2,0.5,0.4,0.5c0.2,0,0.4-0.1,0.4-0.1l0.3,1
			c-0.2,0.2-0.5,0.3-1.1,0.3C68.4,15,67.9,14.5,67.9,13.6z"/>
		<path class="st1" d="M74.5,14.8v-2.9c0-0.7-0.3-0.9-0.9-0.9c-0.5,0-0.9,0.3-1.1,0.6v3.2h-1.3V8.2h1.3v2.5c0.3-0.4,0.9-0.7,1.7-0.7
			c1.1,0,1.6,0.6,1.6,1.5v3.4H74.5z"/>
	</g>
	<g>
		<polygon class="st2" points="59.8,19.1 56.3,19.1 53.5,26.3 50.8,19.1 47.3,19.1 45,32.6 48.5,32.6 49.7,24.8 51.9,30.4 
			52.7,32.6 54.1,32.6 57.3,24.8 58.3,32.6 61.8,32.6 		"/>
		<path class="st2" d="M41.7,19.1c-1.1,0-2.1,0.9-2.1,2v4.7v-0.1v4.9c0,1.1,0.9,2,2.1,2c1.1,0,2.1-0.9,2.1-2v-4.9v0.1V21
			C43.8,20,42.9,19.1,41.7,19.1z"/>
		<polygon class="st2" points="71.4,19.1 71.4,19.1 67.6,19.1 67.6,19.1 67.6,19.1 62.4,32.5 66.1,32.5 67,30.2 71.8,30.2 
			72.7,32.5 76.4,32.5 		"/>
		<polygon class="st2" points="20.4,19.2 20.4,19.2 16.6,19.2 11.4,32.6 11.4,32.6 11.4,32.6 15.1,32.6 15.1,32.6 15.1,32.6 
			16,30.2 20.9,30.2 21.7,32.6 25.4,32.6 		"/>
		<path class="st2" d="M36.3,25.1L36.3,25.1h-4.5v2.5h2.7c-0.1,0.6-0.3,1.1-0.6,1.4c-0.5,0.5-1.2,0.7-2,0.7c-1,0-1.7-0.3-2.3-0.9
			c-0.8-0.8-1.1-1.8-1.1-3c0-0.6,0.1-1.1,0.3-1.7c0.6-1.5,1.6-2.2,3-2.2c0.7,0,1.3,0.2,1.8,0.6c0.4,0.3,0.7,0.7,0.9,1.3l3.1-1.3
			c-0.5-1.1-1.2-1.9-1.9-2.4C34.7,19.4,33.5,19,32,19c-2.3,0-4,0.7-5.3,2.2C25.6,22.5,25,24,25,25.9c0,1.7,0.5,3.1,1.4,4.3
			c1.3,1.6,3,2.4,5.4,2.4c0.6,0,1.1-0.1,1.7-0.2l0,0c0.8-0.2,1.4-0.5,2.1-0.9c1.1-0.7,1.9-1.7,2.4-3.1c0.3-0.9,0.5-2,0.5-3.4
			L36.3,25.1z"/>
	</g>
</g>
</svg>
