<?xml version="1.0" encoding="iso-8859-1"?>
<!-- Generator: Adobe Illustrator 19.0.0, SVG Export Plug-In . SVG Version: 6.00 Build 0)  -->
<svg version="1.1" id="Layer_1" xmlns="http://www.w3.org/2000/svg" xmlns:xlink="http://www.w3.org/1999/xlink" x="0px" y="0px"
	 viewBox="0 0 512 512" style="enable-background:new 0 0 512 512;" xml:space="preserve">
<g>
	<g>
		<g>
			<path d="M406.312,0c-23.536,0-42.688,19.032-42.688,42.424c0,11.047,4.272,21.117,11.254,28.674l-49.994,57.507
				c-5.972-3.164-12.78-4.965-20.005-4.965c-6.05,0-11.805,1.265-17.025,3.531l-47.633-54.744
				c7.736-7.684,12.529-18.297,12.529-30.003C252.752,19.032,233.6,0,210.072,0c-23.544,0-42.688,19.032-42.688,42.424
				c0,10.834,4.111,20.726,10.855,28.232l-50.138,57.672c-5.841-2.989-12.454-4.688-19.462-4.688
				c-23.536,0-42.688,19.032-42.688,42.424c0,23.4,19.152,42.432,42.688,42.432c23.528,0,42.68-19.032,42.68-42.432
				c0-10.675-3.997-20.434-10.569-27.898l50.247-57.798c5.745,2.865,12.221,4.488,19.074,4.488c5.954,0,11.625-1.223,16.779-3.422
				l47.696,54.817c-7.632,7.668-12.355,18.202-12.355,29.814c0,23.4,19.152,42.432,42.688,42.432s42.68-19.032,42.68-42.432
				c0-10.461-3.838-20.043-10.177-27.448l50.398-57.971c5.608,2.697,11.895,4.212,18.532,4.212c23.528,0,42.68-19.032,42.68-42.432
				C448.992,19.032,429.84,0,406.312,0z M108.64,192.496c-14.72,0-26.688-11.856-26.688-26.432S93.92,139.64,108.64,139.64
				c14.712,0,26.68,11.848,26.68,26.424C135.32,180.64,123.352,192.496,108.64,192.496z M183.384,42.424
				c0-14.576,11.968-26.424,26.688-26.424c14.712,0,26.68,11.848,26.68,26.424s-11.968,26.432-26.68,26.432
				C195.352,68.856,183.384,57,183.384,42.424z M304.88,192.496c-14.72,0-26.688-11.856-26.688-26.432s11.968-26.424,26.688-26.424
				c14.712,0,26.68,11.848,26.68,26.424C331.56,180.64,319.592,192.496,304.88,192.496z M406.312,68.856
				c-14.72,0-26.688-11.856-26.688-26.432S391.592,16,406.312,16c14.712,0,26.68,11.848,26.68,26.424S421.024,68.856,406.312,68.856
				z"/>
			<rect x="303.312" y="466.56" width="16" height="34.96"/>
			<rect x="336.96" y="385.36" width="16" height="116.16"/>
			<rect x="370.64" y="326.352" width="16" height="175.176"/>
			<rect x="404.24" y="381.672" width="16" height="119.856"/>
			<rect x="437.88" y="438.088" width="16" height="63.448"/>
			<path d="M158.264,313.192c-55.312,0-100.144,44.504-100.144,99.408c0,54.896,44.832,99.4,100.144,99.4
				c55.312,0,100.144-44.504,100.144-99.408H158.264V313.192z M240.856,428.6c-7.552,38.36-41.712,67.4-82.592,67.4
				c-46.4,0-84.144-37.416-84.144-83.408c0-40.568,29.368-74.464,68.144-81.888V412.6v16h16H240.856z"/>
			<path d="M168.96,302.576v99.408h100.144C269.104,347.08,224.264,302.576,168.96,302.576z M184.96,385.984v-65.896
				c33.544,6.424,60.056,32.664,66.592,65.896H184.96z"/>
		</g>
	</g>
</g>
<g>
</g>
<g>
</g>
<g>
</g>
<g>
</g>
<g>
</g>
<g>
</g>
<g>
</g>
<g>
</g>
<g>
</g>
<g>
</g>
<g>
</g>
<g>
</g>
<g>
</g>
<g>
</g>
<g>
</g>
</svg>
