<?xml version="1.0" encoding="iso-8859-1"?>
<!-- Generator: Adobe Illustrator 16.0.0, SVG Export Plug-In . SVG Version: 6.00 Build 0)  -->
<!DOCTYPE svg PUBLIC "-//W3C//DTD SVG 1.1//EN" "http://www.w3.org/Graphics/SVG/1.1/DTD/svg11.dtd">
<svg version="1.1" id="Capa_1" xmlns="http://www.w3.org/2000/svg" xmlns:xlink="http://www.w3.org/1999/xlink" x="0px" y="0px"
	 width="455.6px" height="455.6px" viewBox="0 0 455.6 455.6" style="enable-background:new 0 0 455.6 455.6;" xml:space="preserve"
	>
<g>
	<path d="M414.801,44.2H40.8C18.265,44.2,0,62.465,0,85v231.2c0,22.535,18.265,40.801,40.8,40.801h149.6V384.2H136
		c-11.268,0-20.4,9.133-20.4,20.4v6.799H340v-6.799c0-11.268-9.133-20.4-20.4-20.4h-54.4v-27.199h149.602
		c22.535,0,40.799-18.266,40.799-40.801V85C455.6,62.465,437.336,44.2,414.801,44.2z M127.983,218.28l33.123,15.898l13.974-51.456
		l53.237,31.872l36.693-62.179l87.346-40.712l5.752,12.322l-83.531,38.937l-41.506,70.332l-49.572-29.674l-13.546,49.899
		l-39.284-18.85l-25.554,24.914l-9.493-9.736L127.983,218.28z M374,309.312V295.8H61.2v-170H45.152l21.699-37.577L88.549,125.8H74.8
		v156.4H374v-16.279l37.576,21.699L374,309.312z"/>
</g>
<g>
</g>
<g>
</g>
<g>
</g>
<g>
</g>
<g>
</g>
<g>
</g>
<g>
</g>
<g>
</g>
<g>
</g>
<g>
</g>
<g>
</g>
<g>
</g>
<g>
</g>
<g>
</g>
<g>
</g>
</svg>
