<?xml version="1.0" encoding="iso-8859-1"?>
<!-- Generator: Adobe Illustrator 19.0.0, SVG Export Plug-In . SVG Version: 6.00 Build 0)  -->
<svg version="1.1" id="Layer_1" xmlns="http://www.w3.org/2000/svg" xmlns:xlink="http://www.w3.org/1999/xlink" x="0px" y="0px"
	 viewBox="0 0 512.017 512.017" style="enable-background:new 0 0 512.017 512.017;" xml:space="preserve">
<g transform="translate(0 -1)">
	<g>
		<g>
			<path d="M456.533,128.597v-3.114l-2.499-2.499c0,0,0,0,0,0L334.567,3.516l0,0l-2.499-2.499h-3.114
				c-0.154-0.007-0.306-0.002-0.459,0H55.467v512h401.067V129.056C456.535,128.903,456.54,128.75,456.533,128.597z M427.399,120.484
				h-90.332V30.152L427.399,120.484z M72.533,495.95V18.084H320v110.933c0,4.713,3.82,8.533,8.533,8.533h110.933v358.4H72.533z"/>
			<path d="M371.2,350.884H234.667c-4.713,0-8.533,3.82-8.533,8.533s3.82,8.533,8.533,8.533H371.2c4.713,0,8.533-3.82,8.533-8.533
				S375.913,350.884,371.2,350.884z"/>
			<path d="M226.133,325.284c0,4.713,3.82,8.533,8.533,8.533h93.867c4.713,0,8.533-3.82,8.533-8.533s-3.82-8.533-8.533-8.533
				h-93.867C229.954,316.75,226.133,320.571,226.133,325.284z"/>
			<path d="M234.667,427.684h93.867c4.713,0,8.533-3.82,8.533-8.533s-3.82-8.533-8.533-8.533h-93.867
				c-4.713,0-8.533,3.82-8.533,8.533S229.954,427.684,234.667,427.684z"/>
			<path d="M188.797,310.087c-3.68-2.944-9.05-2.347-11.994,1.333l-28.178,35.222l-10.325-10.325c-3.333-3.332-8.735-3.332-12.068,0
				c-3.332,3.332-3.332,8.735,0,12.068l17.067,17.067c3.596,3.596,9.52,3.268,12.697-0.703l34.133-42.667
				C193.074,318.401,192.477,313.031,188.797,310.087z"/>
			<path d="M371.2,444.75H234.667c-4.713,0-8.533,3.821-8.533,8.533c0,4.713,3.82,8.533,8.533,8.533H371.2
				c4.713,0,8.533-3.821,8.533-8.533C379.733,448.571,375.913,444.75,371.2,444.75z"/>
			<path d="M188.797,403.954c-3.68-2.944-9.05-2.347-11.994,1.333l-28.178,35.222l-10.325-10.325c-3.333-3.332-8.735-3.332-12.068,0
				c-3.332,3.333-3.332,8.736,0,12.068l17.067,17.067c3.596,3.596,9.52,3.268,12.697-0.703l34.133-42.667
				C193.074,412.268,192.477,406.898,188.797,403.954z"/>
			<path d="M294.4,180.217c0-51.842-42.024-93.867-93.867-93.867c-51.842,0-93.867,42.024-93.867,93.867
				s42.024,93.867,93.867,93.867C252.376,274.084,294.4,232.06,294.4,180.217z M276.85,171.684h-67.784V103.9
				C244.662,107.837,272.914,136.088,276.85,171.684z M200.533,257.017c-42.417,0-76.8-34.383-76.8-76.8
				c0-39.531,29.868-72.07,68.267-76.317v76.317c0,4.713,3.82,8.533,8.533,8.533h76.317
				C272.604,227.149,240.064,257.017,200.533,257.017z"/>
		</g>
	</g>
</g>
<g>
</g>
<g>
</g>
<g>
</g>
<g>
</g>
<g>
</g>
<g>
</g>
<g>
</g>
<g>
</g>
<g>
</g>
<g>
</g>
<g>
</g>
<g>
</g>
<g>
</g>
<g>
</g>
<g>
</g>
</svg>
