<?xml version="1.0" encoding="UTF-8" standalone="no"?>
<!-- Generator: Adobe Illustrator 19.0.0, SVG Export Plug-In . SVG Version: 6.00 Build 0)  -->

<svg
   xmlns:dc="http://purl.org/dc/elements/1.1/"
   xmlns:cc="http://creativecommons.org/ns#"
   xmlns:rdf="http://www.w3.org/1999/02/22-rdf-syntax-ns#"
   xmlns:svg="http://www.w3.org/2000/svg"
   xmlns="http://www.w3.org/2000/svg"
   xmlns:sodipodi="http://sodipodi.sourceforge.net/DTD/sodipodi-0.dtd"
   xmlns:inkscape="http://www.inkscape.org/namespaces/inkscape"
   version="1.1"
   id="Layer_1"
   x="0px"
   y="0px"
   viewBox="0 0 1931 684"
   style="enable-background:new 0 0 1931 684;"
   xml:space="preserve"
   inkscape:version="0.48.4 r9939"
   width="100%"
   height="100%"
   sodipodi:docname="logo_ru.svg"><metadata
     id="metadata41"><rdf:RDF><cc:Work
         rdf:about=""><dc:format>image/svg+xml</dc:format><dc:type
           rdf:resource="http://purl.org/dc/dcmitype/StillImage" /></cc:Work></rdf:RDF></metadata><defs
     id="defs39" /><sodipodi:namedview
     pagecolor="#ffffff"
     bordercolor="#666666"
     borderopacity="1"
     objecttolerance="10"
     gridtolerance="10"
     guidetolerance="10"
     inkscape:pageopacity="0"
     inkscape:pageshadow="2"
     inkscape:window-width="1920"
     inkscape:window-height="1056"
     id="namedview37"
     showgrid="false"
     inkscape:zoom="0.32004143"
     inkscape:cx="1264.4769"
     inkscape:cy="418.20172"
     inkscape:window-x="0"
     inkscape:window-y="24"
     inkscape:window-maximized="1"
     inkscape:current-layer="Layer_1" /><style
     type="text/css"
     id="style3">
	.st0{fill-rule:evenodd;clip-rule:evenodd;fill:#3AA5DE;}
	.st1{fill-rule:evenodd;clip-rule:evenodd;fill:#4F4F53;}
	.st2{fill:#3AA5DE;}
	.st3{fill:#4F4F53;}
	.st4{font-family:'Roboto-Black';}
	.st5{font-size:72px;}
	.st6{letter-spacing:5;}
</style><path
     class="st0"
     d="M442,482.9v-46.5c21.7-22.2,35-52.5,35-85.9c0-34-13.8-64.7-36-87l-86,120l-88-120c-22.3,22.3-36,53-36,87  c0,34.5,14.2,65.6,37,87.9v45.8c-43.9-28.3-73-77.6-73-133.8c0-59.1,32.2-110.6,80-138l0,0l21.3,29.3c0,0,0,0-0.1,0l58.7,80.6l57-80  l1,0.1c-0.3-0.2-0.6-0.4-0.9-0.5l20.9-29.5l0,0c47.8,27.4,80,79,80,138C513,405.8,484.8,454.4,442,482.9z"
     id="path5" /><path
     class="st0"
     d="M399.5,517.1c29.3-8,55.4-23.5,76.4-44.2l59.9,19.2l26.9-19.2l30.9,17.7c-48,81.2-136.1,136-237.3,136.8  l-0.3-35.9l30.1-11.3L399.5,517.1z"
     id="path7" /><path
     class="st0"
     d="M234,472.5c21.5,21.3,47.9,36.3,76.3,44.1l13,61.4l30.1,13.7l-0.1,35.6c-94.5-1-185.9-50-236.7-137.2l31.1-18.2  l24.7,20.4L234,472.5z"
     id="path9" /><path
     class="st0"
     d="M188,306.4c-7.7,29.3-7.5,59.7-0.1,88.3l-46.6,42l3.1,32.9l-30.7,17.7c-46.2-82.5-49.4-186.2,0.5-274l31.2,17.9  l-5.3,31.7L188,306.4z"
     id="path11" /><path
     class="st0"
     d="M310.2,183.9c-29.2,8-55.4,23.5-76.3,44.2l-59.8-19.2L147.2,228l-30.9-17.7c47.9-81.2,135.9-136,237-136.8  l0.3,35.9l-30,11.3L310.2,183.9z"
     id="path13" /><path
     class="st1"
     d="M521.8,394.6c7.7-29.3,7.5-59.7,0.1-88.3l46.6-42l-3.1-33l30.8-17.7c46.2,82.5,49.4,186.3-0.5,274l-31.2-17.9  l5.3-31.7L521.8,394.6z"
     id="path15" /><path
     class="st1"
     d="M475.8,228.4c-21.5-21.3-48-36.3-76.4-44.1l-13-61.5l-30.1-13.7l0.1-35.6c94.6,1,186.1,50,237.1,137.2  l-31.2,18.2l-24.8-20.4L475.8,228.4z"
     id="path17" /><g
     id="g19"><path
       class="st2"
       d="M779.4,388.7h0.7l45.7-131h46.5v177.7h-35.6V314.2L836,314L792,435.5h-24.2l-43.9-121.7l-0.7,0.1v121.6h-35.6   V257.8h46.8L779.4,388.7z"
       id="path21" /><path
       class="st2"
       d="M980.2,435.5c-1.3-3-2.4-6.2-3.4-9.5c-0.9-3.3-1.6-6.8-2-10.3c-3.7,6.4-8.5,11.8-14.5,16   c-6,4.2-13.2,6.3-21.5,6.3c-13.8,0-24.5-3.6-32-10.7c-7.5-7.1-11.2-16.8-11.2-29.1c0-12.9,5-23,15-30.1c10-7.1,24.5-10.7,43.6-10.7   h20V347c0-6.3-1.7-11.3-5-14.8c-3.3-3.5-8.3-5.2-14.9-5.2c-5.8,0-10.2,1.4-13.4,4.2c-3.1,2.8-4.7,6.7-4.7,11.5H902l-0.2-0.7   c-0.6-11.1,4.3-20.8,14.6-28.9c10.3-8.1,23.7-12.1,40.3-12.1c15.9,0,28.7,4,38.5,12c9.8,8,14.7,19.4,14.7,34.3v54.6   c0,6.2,0.5,12,1.4,17.5c0.9,5.5,2.4,10.9,4.5,16.2H980.2z M947.7,411.7c6.2,0,11.7-1.5,16.6-4.6c4.9-3.1,8.2-6.7,10-10.7v-18.7h-20   c-7.6,0-13.3,1.9-17.2,5.6c-3.9,3.7-5.8,8.3-5.8,13.8c0,4.5,1.4,8,4.3,10.7C938.5,410.4,942.5,411.7,947.7,411.7z"
       id="path23" /><path
       class="st2"
       d="M1031.4,370.6c0-20.8,4.5-37.6,13.5-50.4c9-12.8,21.7-19.2,38.1-19.2c7.4,0,13.9,1.7,19.5,5   c5.6,3.3,10.4,8.1,14.4,14.3l2.8-16.8h30.6v131.5c0,17.2-5.6,30.5-16.8,39.9c-11.2,9.4-26.9,14.1-47,14.1c-6.7,0-13.8-0.9-21.2-2.7   c-7.5-1.8-14.4-4.3-20.8-7.5l6-26.6c5.5,2.6,11.1,4.6,16.9,5.9c5.8,1.3,12.1,2,18.9,2c9.8,0,16.9-2,21.5-6.1   c4.6-4.1,6.9-10.4,6.9-19v-12c-3.9,5-8.5,8.7-13.8,11.4c-5.3,2.6-11.4,3.9-18.2,3.9c-16.2,0-28.8-5.9-37.8-17.8   c-9-11.9-13.5-27.6-13.5-47.1V370.6z M1067,373.1c0,11.6,1.9,20.7,5.8,27.3c3.9,6.6,10.2,9.9,19,9.9c5.5,0,10.1-1,13.9-3   c3.8-2,6.8-4.9,9.1-8.7v-57.3c-2.3-4.1-5.3-7.2-9.1-9.4s-8.3-3.3-13.6-3.3c-8.7,0-15.1,3.9-19,11.6c-4,7.7-6,17.8-6,30.3V373.1z"
       id="path25" /><path
       class="st2"
       d="M1210.4,303.4l1.6,18.9c4.4-6.8,9.8-12,16.2-15.7c6.4-3.7,13.6-5.6,21.6-5.6c13.3,0,23.8,4.3,31.3,12.9   c7.5,8.6,11.2,22.2,11.2,40.7v80.9h-35.8v-80.8c0-9.4-1.6-16.1-4.9-20.1c-3.3-3.9-8.2-5.9-14.8-5.9c-5.3,0-9.9,1-14,3   c-4,2-7.3,4.7-9.9,8.2v95.6h-35.6V303.4H1210.4z"
       id="path27" /><path
       class="st2"
       d="M1376.1,438.1c-19.7,0-35.1-6-46.1-18.1c-11.1-12.1-16.6-27.6-16.6-46.7v-4.9c0-19.8,5.4-36,16.1-48.6   c10.7-12.6,25.5-18.9,44.3-18.8c17.7,0,31.4,5.4,40.8,16.3c9.5,10.9,14.2,25.5,14.2,43.9v18.4h-78.7l-0.4,0.7   c0.6,9,3.3,16.4,8.2,22c4.9,5.6,12.2,8.4,21.9,8.4c8,0,14.8-0.8,20.3-2.4c5.6-1.6,11.3-4.1,17.3-7.4l9.6,22   c-5.3,4.3-12.5,7.9-21.5,10.9C1396.6,436.6,1386.8,438.1,1376.1,438.1z M1373.8,328.4c-7.2,0-12.7,2.5-16.5,7.4   c-3.9,4.9-6.2,11.5-7,19.6l0.2,0.6h43.5v-2.7c0-7.7-1.6-13.8-4.8-18.3C1386,330.7,1380.9,328.4,1373.8,328.4z"
       id="path29" /><path
       class="st2"
       d="M1506.9,438.1c-19.7,0-35.1-6-46.1-18.1c-11.1-12.1-16.6-27.6-16.6-46.7v-4.9c0-19.8,5.4-36,16.1-48.6   c10.7-12.6,25.5-18.9,44.3-18.8c17.7,0,31.4,5.4,40.8,16.3c9.5,10.9,14.2,25.5,14.2,43.9v18.4h-78.7l-0.4,0.7   c0.6,9,3.3,16.4,8.2,22c4.9,5.6,12.2,8.4,21.9,8.4c8,0,14.7-0.8,20.3-2.4c5.6-1.6,11.3-4.1,17.3-7.4l9.6,22   c-5.3,4.3-12.5,7.9-21.5,10.9C1527.4,436.6,1517.5,438.1,1506.9,438.1z M1504.5,328.4c-7.2,0-12.7,2.5-16.5,7.4   c-3.9,4.9-6.2,11.5-7,19.6l0.2,0.6h43.5v-2.7c0-7.7-1.6-13.8-4.8-18.3C1516.7,330.7,1511.6,328.4,1504.5,328.4z"
       id="path31" /><path
       class="st2"
       d="M1630,345.4h0.7l20.3-42h40.3l-39.8,65.3l41.1,66.8h-40.2l-21.6-43.8l-21.6,43.8H1569l41.1-66.8l-39.9-65.3h40   L1630,345.4z"
       id="path33" /></g></svg>